<svg width="142" height="28" viewBox="0 0 142 28" fill="none" xmlns="http://www.w3.org/2000/svg">
<g clip-path="url(#clip0_1_75)">
<path d="M0 6.22787V21.7997H4.53561V9.3418H6.83489V21.7997H11.3705V6.22787H0Z" fill="white"/>
<path d="M25.8272 21.7997H14.4588V6.22787H25.8272V15.5704H18.9937V18.685H25.8272V21.7997ZM21.2923 9.3418H18.9937V12.4564H21.2923V9.3418Z" fill="white"/>
<path d="M47.4497 0V21.7997H54.2643V18.685H51.986V9.3418H54.2643V6.22787H51.986V0H47.4497Z" fill="white"/>
<path d="M61.9127 9.3418H64.2113V18.685H61.9127V9.3418ZM57.3757 6.22787V27.9993H61.9127V21.7989H68.7476V6.22787H57.3757Z" fill="white"/>
<path d="M83.2316 21.7997H71.8604V6.22787H83.2316V15.5704H76.3974V18.685H83.2316V21.7997ZM78.6974 9.3418H76.3974V12.4564H78.6974V9.3418Z" fill="white"/>
<path d="M95.4555 9.3418H90.8786V21.7997H86.3444V6.22787H95.4555V9.3418Z" fill="white"/>
<path d="M98.5676 0V21.7997H105.382V18.685H103.105V9.3418H105.382V6.22787H103.105V0H98.5676Z" fill="white"/>
<path d="M108.496 21.7997H113.033V6.22787H108.496V21.7997ZM108.496 3.11393H113.033V0H108.496V3.11393Z" fill="white"/>
<path d="M127.517 21.7997H116.144V18.685H122.98V15.5697H116.144V6.22857H127.517V9.34251H120.68V12.4564H127.517V21.7997Z" fill="white"/>
<path d="M135.165 9.3418H137.464V12.4564H135.165V9.3418ZM130.629 6.22787V21.7989H142V18.685H135.165V15.569H142V6.22787H130.629Z" fill="white"/>
<path d="M38.1721 12.4564H35.0831V15.5704H38.1721V12.4564Z" fill="black"/>
<path d="M35.0838 9.3418H31.9983V12.4564H35.0831L35.0838 9.3418Z" fill="black"/>
<path d="M31.9983 6.22787H28.9099V9.3418L31.9983 9.3418L31.9983 6.22787Z" fill="black"/>
<path d="M41.259 9.3418H38.1721V12.4564H41.259V9.3418Z" fill="black"/>
<path d="M44.3467 6.22787H41.259L41.259 9.3418L44.3467 9.3418V6.22787Z" fill="black"/>
<path d="M35.0838 15.569H31.9983V18.685H35.0838V15.569Z" fill="black"/>
<path d="M31.9983 18.685L28.9099 18.685V21.7989H31.9983L31.9983 18.685Z" fill="black"/>
<path d="M41.259 15.569H38.1721V18.685H41.259V15.569Z" fill="black"/>
<path d="M44.3467 18.685L41.259 18.685L41.259 21.7989H44.3467V18.685Z" fill="black"/>
</g>
<defs>
<clipPath id="clip0_1_75">
<rect width="142" height="28" fill="white"/>
</clipPath>
</defs>
</svg>
